<?xml version="1.0" encoding="UTF-8" standalone="no"?>
<!DOCTYPE svg PUBLIC "-//W3C//DTD SVG 1.1//EN" "http://www.w3.org/Graphics/SVG/1.1/DTD/svg11.dtd">
<svg width="100%" height="100%" viewBox="0 0 1800 1800" version="1.1" xmlns="http://www.w3.org/2000/svg" xmlns:xlink="http://www.w3.org/1999/xlink" xml:space="preserve" xmlns:serif="http://www.serif.com/" style="fill-rule:evenodd;clip-rule:evenodd;stroke-linejoin:round;stroke-miterlimit:2;">
    <g>
        <path d="M1506.69,279.092L1356.33,279.092L1356.33,193.815C1356.33,176.462 1342.27,162.397 1324.91,162.397L1097.6,162.397C1078.2,70.574 996.5,2.304 900.003,2.304C803.504,2.304 721.801,70.574 702.408,162.396L475.091,162.396C457.738,162.396 443.672,176.461 443.672,193.814L443.672,279.091L293.307,279.091C275.954,279.091 261.888,293.157 261.888,310.51L261.888,1766.27C261.888,1783.63 275.954,1797.69 293.307,1797.69L1506.69,1797.69C1524.05,1797.69 1538.11,1783.63 1538.11,1766.27L1538.11,310.511C1538.11,293.158 1524.05,279.092 1506.69,279.092ZM506.511,225.234L729.791,225.234C746.408,225.234 760.145,212.299 761.153,195.717C765.589,122.498 826.577,65.143 900.003,65.143C973.428,65.143 1034.42,122.498 1038.85,195.717C1039.86,212.299 1053.6,225.234 1070.21,225.234L1293.5,225.234L1293.5,416.74L506.511,416.74L506.511,225.234ZM1475.27,1734.86L324.728,1734.86L324.728,341.93L443.672,341.93L443.672,448.159C443.672,465.513 457.738,479.578 475.091,479.578L1324.91,479.578C1342.27,479.578 1356.33,465.512 1356.33,448.159L1356.33,341.93L1475.27,341.93L1475.27,1734.86Z" style="fill:rgb(172,180,193);fill-rule:nonzero;"/>
        <path d="M663.633,684.019L534.366,813.291L476.563,755.485C464.291,743.22 444.399,743.22 432.126,755.485C419.857,767.757 419.857,787.649 432.126,799.922L512.147,879.944C518.283,886.076 526.323,889.145 534.366,889.145C542.409,889.145 550.449,886.076 556.585,879.944L708.071,728.458C720.34,716.185 720.34,696.293 708.071,684.02C695.799,671.755 675.907,671.755 663.633,684.019Z" style="fill:rgb(172,180,193);fill-rule:nonzero;"/>
        <path d="M824.996,750.563C807.642,750.563 793.577,764.629 793.577,781.982C793.577,799.336 807.643,813.401 824.996,813.401L1345.66,813.401C1363.02,813.401 1377.08,799.335 1377.08,781.982C1377.08,764.629 1363.02,750.563 1345.66,750.563L824.996,750.563Z" style="fill:rgb(172,180,193);fill-rule:nonzero;"/>
        <path d="M663.633,1039.92L534.366,1169.2L476.563,1111.39C464.291,1099.12 444.399,1099.12 432.126,1111.39C419.857,1123.66 419.857,1143.55 432.126,1155.83L512.147,1235.85C518.283,1241.98 526.323,1245.05 534.366,1245.05C542.409,1245.05 550.449,1241.98 556.585,1235.85L708.071,1084.36C720.34,1072.09 720.34,1052.2 708.071,1039.92C695.799,1027.66 675.907,1027.66 663.633,1039.92Z" style="fill:rgb(172,180,193);fill-rule:nonzero;"/>
        <path d="M1345.66,1106.47L824.996,1106.47C807.642,1106.47 793.577,1120.53 793.577,1137.89C793.577,1155.24 807.643,1169.31 824.996,1169.31L1345.66,1169.31C1363.02,1169.31 1377.08,1155.24 1377.08,1137.89C1377.08,1120.53 1363.02,1106.47 1345.66,1106.47Z" style="fill:rgb(172,180,193);fill-rule:nonzero;"/>
        <path d="M663.633,1395.83L534.366,1525.1L476.563,1467.29C464.291,1455.03 444.399,1455.03 432.126,1467.29C419.857,1479.57 419.857,1499.46 432.126,1511.73L512.147,1591.75C518.283,1597.89 526.323,1600.95 534.366,1600.95C542.409,1600.95 550.449,1597.89 556.585,1591.75L708.071,1440.27C720.34,1427.99 720.34,1408.1 708.071,1395.83C695.799,1383.57 675.907,1383.57 663.633,1395.83Z" style="fill:rgb(172,180,193);fill-rule:nonzero;"/>
        <path d="M1345.66,1462.37L824.996,1462.37C807.642,1462.37 793.577,1476.44 793.577,1493.79C793.577,1511.15 807.643,1525.21 824.996,1525.21L1345.66,1525.21C1363.02,1525.21 1377.08,1511.15 1377.08,1493.79C1377.08,1476.44 1363.02,1462.37 1345.66,1462.37Z" style="fill:rgb(172,180,193);fill-rule:nonzero;"/>
    </g>
</svg>
